# xmcd CD database file
#
# Track frame offsets:
#	150
#	21496
#	33981
#	48579
#	71471
#	86673
#	111419
#	140734
#	166654
#
# Disc length: 2744 seconds
#
# Revision: 0
# Processed by: cddbd v1.5.1PL0 Copyright (c) Steve Scherf et al.
# Submitted via: CDex 1.51
#
DISCID=7b0ab609
DTITLE=Pascal Lefeuvre and Germán Díaz - Dúo de Fuego
DYEAR=2003
DGENRE=Jazz
TTITLE0=Longa Shahenaz
TTITLE1=Leo estante num instante
TTITLE2=Flor de venganza
TTITLE3=Longa Farhafsa
TTITLE4=Rumba para Susi
TTITLE5=Sangena
TTITLE6=Libertango
TTITLE7=Anda Jaleo
TTITLE8=Suite Turque
EXTD=YEAR: 2003
EXTT0=
EXTT1=
EXTT2=
EXTT3=
EXTT4=
EXTT5=
EXTT6=
EXTT7=
EXTT8=
PLAYORDER=
